<svg xmlns="http://www.w3.org/2000/svg" viewBox="0 0 1920 1080"><defs><style>.f06f3880-9836-4b64-baa6-38d5570d198f{fill:#c00;}.b74dcef9-121e-4a12-8845-819aeecef736{fill:#fff;}</style></defs><g id="a95569b1-cd51-47e7-b404-f59a63105647" data-name="レイヤー 2"><path class="f06f3880-9836-4b64-baa6-38d5570d198f" d="M687.5,929a279.49,279.49,0,1,1,197.64-81.86A277.67,277.67,0,0,1,687.5,929Z"/><path class="b74dcef9-121e-4a12-8845-819aeecef736" d="M687.5,377.5c150.22,0,272,121.78,272,272s-121.78,272-272,272-272-121.78-272-272,121.78-272,272-272m0-15a286.14,286.14,0,1,0,111.72,22.56A285.21,285.21,0,0,0,687.5,362.5Z"/></g><g id="b42d0392-e9fe-4591-b78f-a2716c9c3159" data-name="レイヤー 1"><path d="M-176.59,1142l172.12-39.49A1937.41,1937.41,0,0,0,354,982.47c165.25-74.09,317.62-170.86,452.89-287.61C948.2,572.93,1070.36,429.8,1170,269.44l5.76-9.26,212.54-3.41,4.65,13.87a2011.74,2011.74,0,0,0,242.59,490.13,2012.06,2012.06,0,0,0,298,346.55l37.48,34.68Z"/><path class="b74dcef9-121e-4a12-8845-819aeecef736" d="M1374,277a2031.81,2031.81,0,0,0,245,495,2029.9,2029.9,0,0,0,301,350H0c183-42,509.6-144.09,820-412,173-149.36,290.12-306.28,367-430l187-3m28.62-40.46-29.26.47-187,3-21.82.34L1153,258.89c-98.59,158.63-219.42,300.22-359.17,420.83-133.79,115.48-284.53,211.2-448,284.5A1916.43,1916.43,0,0,1-8.95,1083l-344.24,79h2375.3l-74.94-69.36a1992.15,1992.15,0,0,1-295.07-343.1,1991.37,1991.37,0,0,1-240.17-485.25l-9.31-27.75Z"/><path d="M-110.37,1134.5-2.8,1109.82A1944.35,1944.35,0,0,0,357.11,989.31C523,914.92,676,817.76,811.83,700.54c141.85-122.43,264.5-266.14,364.55-427.14l3.6-5.79,203-3.26,2.91,8.68a2019.45,2019.45,0,0,0,243.49,492,2020.56,2020.56,0,0,0,299.15,347.85l23.42,21.67Z"/><path d="M1374,277a2031.81,2031.81,0,0,0,245,495,2029.9,2029.9,0,0,0,301,350H0c183-42,509.6-144.09,820-412,173-149.36,290.12-306.28,367-430l187-3m17.89-25.29-18.29.29-93.5,1.5-93.5,1.5-13.64.22-7.19,11.58c-99.39,159.93-221.21,302.67-362.1,424.27C668.76,807.51,516.8,904,352,977.91A1932.3,1932.3,0,0,1-5.59,1097.63L-220.74,1147H1983.82L1937,1103.65A2007.41,2007.41,0,0,1,1639.69,758a2006.62,2006.62,0,0,1-242-488.91l-5.81-17.34Z"/><path class="b74dcef9-121e-4a12-8845-819aeecef736" d="M1113,443c26-26,28,72,28,72l46-76s57,92,72,107c1.24,1.24,2.14,1.68,2.78,1.45,9.18-3.34-5.61-81.06,12.22-88.45,14.93-6.19,36.85,44.92,93,84,33.41,23.25,66.74,33.76,90,39-6.57-2.49-45.56-18-56-56-3.15-11.45-6.52-35.25,4-42,18.34-11.76,66.4,36.29,70.42,40.37h0A2037.86,2037.86,0,0,1,1374,277l-187,3a1891,1891,0,0,1-172.76,235.43S1087,469,1113,443Z"/></g></svg>